<svg width="14" height="14" viewBox="0 0 14 14" fill="none" xmlns="http://www.w3.org/2000/svg">
<g id="Calendar" clip-path="url(#clip0_7919_7216)">
<path id="Vector" d="M12.7502 1.8769H10.1252V0.8769C10.1252 0.80815 10.069 0.7519 10.0002 0.7519H9.12525C9.05649 0.7519 9.00025 0.80815 9.00025 0.8769V1.8769H5.00024V0.8769C5.00024 0.80815 4.94399 0.7519 4.87524 0.7519H4.00024C3.93149 0.7519 3.87524 0.80815 3.87524 0.8769V1.8769H1.25024C0.973682 1.8769 0.750244 2.10034 0.750244 2.3769V12.7519C0.750244 13.0285 0.973682 13.2519 1.25024 13.2519H12.7502C13.0268 13.2519 13.2502 13.0285 13.2502 12.7519V2.3769C13.2502 2.10034 13.0268 1.8769 12.7502 1.8769ZM12.1252 12.1269H1.87524V6.1894H12.1252V12.1269ZM1.87524 5.1269V3.0019H3.87524V3.7519C3.87524 3.82065 3.93149 3.8769 4.00024 3.8769H4.87524C4.94399 3.8769 5.00024 3.82065 5.00024 3.7519V3.0019H9.00025V3.7519C9.00025 3.82065 9.05649 3.8769 9.12525 3.8769H10.0002C10.069 3.8769 10.1252 3.82065 10.1252 3.7519V3.0019H12.1252V5.1269H1.87524Z" fill="black" fill-opacity="0.25"/>
</g>
<defs>
<clipPath id="clip0_7919_7216">
<rect width="14" height="14" fill="white"/>
</clipPath>
</defs>
</svg>
