<?xml version="1.0" encoding="UTF-8"?>
<svg width="1em" height="1em" viewBox="0 0 16 16" version="1.1" xmlns="http://www.w3.org/2000/svg" >
    <g id="登录/密码/闭眼" stroke="none" stroke-width="1" fill="none" fill-rule="evenodd">
        <g id="编组">
            <rect id="矩形" x="0" y="0" width="16" height="16"></rect>
        </g>
        <g id="编组-2" transform="translate(0.644875, 4.759826)">
            <path d="M-2.22044605e-14,-1.24344979e-14 C0.331400542,0.389366326 0.54890841,0.642511039 0.652523603,0.759434137 C1.29667855,1.48632166 1.78571101,1.98493272 2.11962099,2.25526731 C3.75408986,3.57853854 5.49925777,4.24017415 7.35512474,4.24017415 C9.21099171,4.24017415 10.9561596,3.57853854 12.5906285,2.25526731 C12.9245327,1.98493737 13.4135612,1.48633029 14.0577139,0.759446094 C14.1613301,0.642521893 14.3788402,0.389374974 14.710244,-1.24344979e-14" id="路径" stroke="#6A6B72" stroke-linecap="round"></path>
            <rect id="矩形" fill="#6A6B72" transform="translate(5.365135, 5.390076) rotate(-345.000000) translate(-5.365135, -5.390076) " x="4.86513451" y="3.8900765" width="1" height="3" rx="0.5"></rect>
            <rect id="矩形备份" fill="#6A6B72" transform="translate(9.355125, 5.390076) rotate(-15.000000) translate(-9.355125, -5.390076) " x="8.85512474" y="3.8900765" width="1" height="3" rx="0.5"></rect>
            <path d="M12.3551247,2.71136556 L13.3551247,2.71136556 L13.3551247,5.21136556 C13.3551247,5.48750793 13.1312671,5.71136556 12.8551247,5.71136556 C12.5789824,5.71136556 12.3551247,5.48750793 12.3551247,5.21136556 L12.3551247,2.71136556 L12.3551247,2.71136556 Z" id="矩形备份-2" fill="#6A6B72" transform="translate(12.855125, 4.211366) rotate(-30.000000) translate(-12.855125, -4.211366) "></path>
            <path d="M1.35512474,2.61828694 L2.35512474,2.61828694 L2.35512474,5.11828694 C2.35512474,5.39442932 2.13126712,5.61828694 1.85512474,5.61828694 C1.57898237,5.61828694 1.35512474,5.39442932 1.35512474,5.11828694 L1.35512474,2.61828694 L1.35512474,2.61828694 Z" id="矩形备份-3" fill="#6A6B72" transform="translate(1.855125, 4.118287) rotate(-330.000000) translate(-1.855125, -4.118287) "></path>
        </g>
    </g>
</svg>
