<svg xmlns="http://www.w3.org/2000/svg" width="16" height="16" viewBox="0 0 16 16" fill="none">
  <g clip-path="url(#clip0_4265_28917)">
    <path fill-rule="evenodd" clip-rule="evenodd"
      d="M2.00275 1.4845C2.00275 1.20835 2.22661 0.984497 2.50275 0.984497H9.4133C9.68944 0.984497 9.9133 1.20835 9.9133 1.4845V5.74522L13.5172 8.1478C13.6563 8.24054 13.7398 8.39665 13.7398 8.56383V13.7396H15.5546C15.6927 13.7396 15.8046 13.8515 15.8046 13.9896V14.7651C15.8046 14.9032 15.6927 15.0151 15.5546 15.0151H0.467042C0.32897 15.0151 0.217041 14.9032 0.217042 14.7651L0.217044 13.9896C0.217045 13.8515 0.328971 13.7396 0.467041 13.7396L2.00275 13.7395V1.4845ZM8.63779 13.7396V2.26002L3.27826 2.25999V13.7395L8.63779 13.7396ZM12.4643 13.7396V8.97886L9.9133 7.27819V13.7396L12.4643 13.7396Z"
      fill="#141414" />
    <path
      d="M4.62988 5.25244C4.62988 5.11437 4.74181 5.00244 4.87988 5.00244H6.93071C7.06878 5.00244 7.18071 5.11437 7.18071 5.25244V6.02785C7.18071 6.16593 7.06878 6.27785 6.93071 6.27785H4.87988C4.74181 6.27785 4.62988 6.16593 4.62988 6.02785V5.25244Z"
      fill="#141414" />
    <path
      d="M4.62988 7.8031C4.62988 7.66503 4.74181 7.5531 4.87988 7.5531H6.93071C7.06878 7.5531 7.18071 7.66503 7.18071 7.8031V8.57851C7.18071 8.71658 7.06878 8.82851 6.93071 8.82851H4.87988C4.74181 8.82851 4.62988 8.71658 4.62988 8.57851V7.8031Z"
      fill="#141414" />
    <path
      d="M10.551 9.43774C10.551 9.36341 10.6293 9.31506 10.6957 9.3483L11.7159 9.85837C11.7836 9.89225 11.8264 9.9615 11.8264 10.0373V10.9891C11.8264 11.0995 11.7369 11.1891 11.6264 11.1891H10.751C10.6406 11.1891 10.551 11.0995 10.551 10.9891V9.43774Z"
      fill="#141414" />
  </g>
  <defs>
    <clipPath id="clip0_4265_28917">
      <rect width="16" height="16" fill="white" />
    </clipPath>
  </defs>
</svg>