<svg xmlns="http://www.w3.org/2000/svg" width="54" height="54" viewBox="0 0 54 54" fill="none">
  <circle cx="27" cy="27" r="27" fill="#F5F5F5" />
  <mask id="mask0_4265_28778" style="mask-type:alpha" maskUnits="userSpaceOnUse" x="0" y="0"
    width="54" height="54">
    <path
      d="M27 54C41.9117 54 54 41.9117 54 27C54 12.0883 41.9117 0 27 0C12.0883 0 0 12.0883 0 27C0 41.9117 12.0883 54 27 54Z"
      fill="white" />
  </mask>
  <g mask="url(#mask0_4265_28778)">
    <path
      d="M33.4507 39.9645C33.2609 38.0115 33.3242 36.5625 33.3242 34.7355C34.2096 34.2315 37.3717 31.2075 37.6247 28.6875C38.3204 28.6245 39.4588 27.9315 39.775 25.1595C39.9647 23.7105 39.269 22.8285 38.8263 22.5765C39.9647 19.1115 40.4707 8.2755 32.502 7.2045C31.6799 5.8185 29.5928 5.0625 26.8734 5.0625C15.9955 5.2515 12.7701 13.3785 15.1734 22.6395C14.7307 22.8915 14.035 23.7105 14.2247 25.2225C14.5409 27.9945 15.6793 28.6875 16.375 28.7505C16.628 31.3335 19.7901 34.3575 20.6755 34.7985C20.6755 36.6255 20.7388 38.0115 20.549 40.0275C18.3988 45.8235 4.29553 42.7995 3.59985 55.4625H50.3999C50.0204 42.6105 35.6009 45.8235 33.4507 39.9645Z"
      fill="#D9D9D9" />
  </g>
</svg>