<svg width="17" height="16" viewBox="0 0 17 16" fill="none" xmlns="http://www.w3.org/2000/svg">
<g id="Right">
<path id="Vector" d="M8.94958 12.5304L15.2371 4.48036C15.2536 4.45932 15.2639 4.43404 15.2668 4.40742C15.2696 4.3808 15.2649 4.35392 15.2531 4.32987C15.2414 4.30581 15.2231 4.28556 15.2004 4.27143C15.1776 4.2573 15.1514 4.24987 15.1246 4.25L13.7442 4.25C13.6567 4.25 13.5728 4.29107 13.5192 4.35893L8.49958 10.7875L3.47994 4.35893C3.42637 4.28929 3.34244 4.25 3.25494 4.25L1.87458 4.25C1.75494 4.25 1.68887 4.3875 1.76208 4.48036L8.04958 12.5304C8.10295 12.5988 8.17122 12.6541 8.2492 12.6922C8.32718 12.7303 8.41281 12.7501 8.49958 12.7501C8.58636 12.7501 8.67199 12.7303 8.74996 12.6922C8.82794 12.6541 8.89621 12.5988 8.94958 12.5304Z" fill="#BFBFBF"/>
</g>
</svg>
