<svg width="64" height="40" viewBox="0 0 64 40" fill="none" xmlns="http://www.w3.org/2000/svg">
<g clip-path="url(#clip0_4461_11296)">
<path d="M32 40C49.6731 40 64 36.9424 64 33.1707C64 29.399 49.6731 26.3414 32 26.3414C14.3269 26.3414 0 29.399 0 33.1707C0 36.9424 14.3269 40 32 40Z" fill="#F0F0F0"/>
<path fill-rule="evenodd" clip-rule="evenodd" d="M55 13.4244L44.854 2.2029C44.367 1.43803 43.656 0.975586 42.907 0.975586H21.093C20.344 0.975586 19.633 1.43802 19.146 2.20193L9 13.4253V22.439H55V13.4244Z" stroke="#D9D9D9"/>
<path fill-rule="evenodd" clip-rule="evenodd" d="M41.613 16.5181C41.613 14.9522 42.607 13.6595 43.84 13.6586H55V31.3532C55 33.4244 53.68 35.122 52.05 35.122H11.95C10.32 35.122 9 33.4234 9 31.3532V13.6586H20.16C21.393 13.6586 22.387 14.9493 22.387 16.5152V16.5366C22.387 18.1025 23.392 19.3669 24.624 19.3669H39.376C40.608 19.3669 41.613 18.0908 41.613 16.5249V16.5181Z" fill="#F0F0F0" stroke="#D9D9D9"/>
</g>
<defs>
<clipPath id="clip0_4461_11296">
<rect width="64" height="40" fill="white"/>
</clipPath>
</defs>
</svg>
