<svg width="16" height="18" viewBox="0 0 16 18" fill="none" xmlns="http://www.w3.org/2000/svg">
<g id="SafetyCertificate">
<path id="Vector" d="M14.3372 2.89433L8.26936 0.826471C8.19615 0.801471 8.09794 0.788971 7.99972 0.788971C7.90151 0.788971 7.80329 0.801471 7.73008 0.826471L1.66222 2.89433C1.51401 2.94433 1.39258 3.11576 1.39258 3.2729V11.8872C1.39258 12.0443 1.49436 12.2515 1.61758 12.3497L7.77294 17.1461C7.83544 17.1943 7.91579 17.2193 7.99794 17.2193C8.08008 17.2193 8.16222 17.1943 8.22294 17.1461L14.3783 12.3497C14.5015 12.2533 14.6033 12.0461 14.6033 11.8872V3.2729C14.6069 3.11576 14.4854 2.94611 14.3372 2.89433ZM13.3211 11.5443L7.99972 15.6908L2.67829 11.5443V3.90861L7.99972 2.09433L13.3211 3.90861V11.5443ZM6.07472 7.95504C6.02115 7.88183 5.93544 7.83719 5.84258 7.83719H4.85686C4.74079 7.83719 4.67294 7.96933 4.74079 8.06397L6.99794 11.1711C7.02462 11.2076 7.05956 11.2374 7.0999 11.2578C7.14023 11.2783 7.18484 11.289 7.23008 11.289C7.27532 11.289 7.31992 11.2783 7.36026 11.2578C7.4006 11.2374 7.43553 11.2076 7.46222 11.1711L11.2586 5.94433C11.3265 5.84969 11.2586 5.71754 11.1426 5.71754H10.1569C10.0658 5.71754 9.97829 5.76219 9.92472 5.8354L7.23008 9.54612L6.07472 7.95504Z" fill="#BFBFBF"/>
</g>
</svg>
