<svg width="201" height="119" viewBox="0 0 201 119" fill="none" xmlns="http://www.w3.org/2000/svg">
<g id="Frame 2">
<g id="Group">
<g id="Group_2">
<path id="Vector" d="M55.0827 93.0758C55.0827 93.0758 50.675 102.244 50.2139 103.031L62.8097 103.098L61.533 97.7652L65.9804 97.7553L68.9824 106.998H64.4037H64.0145L44.5072 106.921V102.803C44.5072 102.803 49.138 94.563 50.0602 93.0758H43V89.062H68.9824V93.0758H55.0827Z" fill="#3370FF"/>
<path id="Vector_2" d="M66.6347 80.9725H45.35V84.9591H66.6347V80.9725Z" fill="#3370FF"/>
<path id="Vector_3" d="M158.464 103.281V106.914H144.607C143.236 106.914 142.101 106.83 141.201 106.664C140.301 106.498 139.503 106.211 138.808 105.8C138.114 105.389 137.423 104.786 136.738 103.984L132.477 107.099L132.46 102.098L134.537 100.465V91.9549H132.492V87.9633H138.618V99.5865C138.618 100.314 138.89 101.024 139.408 101.539C139.917 102.044 140.484 102.422 141.114 102.68C142.093 103.081 143.452 103.281 145.194 103.281H158.464ZM156.732 92.7146V101.361H141.23V92.7146H156.732ZM143.189 87.3125H138.915C139.562 86.3548 140.469 84.7661 140.997 83.5957C141.525 82.4227 141.835 81.5591 142.155 80.4455H145.948C145.792 81.0122 145.445 82.2124 145.224 82.7444H147.425V80.0496H151.536V82.7444H157.173V86.1148H151.536V87.9609H158.169V91.3906H139.644V87.9609H141.287H142.596H147.423V86.1148H143.871C143.618 86.6642 143.189 87.3125 143.189 87.3125ZM152.711 95.939H145.194V98.0201H152.711V95.939Z" fill="#3370FF"/>
<path id="Vector_4" d="M117.603 81.2077V93.9939H128.171V81.2077H117.603ZM124.443 90.5765H121.272V84.5484H124.443V90.5765Z" fill="#3370FF"/>
<path id="Vector_5" d="M103.503 93.348L102.61 93.9963L108.178 93.932L108.27 93.8602C108.307 93.8305 109.214 93.155 110.411 91.6331L112.833 93.9345L117.179 93.9988L116.554 93.3851C116.351 93.1847 116.034 92.8803 115.655 92.5165C114.611 91.5143 113.332 90.1236 112.516 89.2352H113.081H116.869V86.1296H112.524L112.583 84.2612H116.282V81.2422H108.741C108.936 80.8315 109.15 80.4528 109.306 80.0025H105.486C105.176 80.6558 104.467 82.6973 102.6 85.5406L106.532 85.5134C106.827 85.1843 107.157 84.5805 107.338 84.2563L108.855 84.2588C108.855 85.0605 108.835 85.8524 108.795 86.1271H102.836V89.2327H107.826H108.007C107.6 89.8266 107.07 90.225 106.621 90.6804C105.942 91.3658 104.767 92.4299 103.503 93.348Z" fill="#3370FF"/>
<path id="Vector_6" d="M136.763 80.3736L132.492 80.3613L134.45 86.3003L138.722 86.3152L136.763 80.3736Z" fill="#3370FF"/>
<path id="Vector_7" d="M94.1394 107.03H98.319L93.8692 101.153H98.3115V97.9286H87.9493V96.8249H83.9556V97.9286H73.5934V101.153H78.0705L73.5934 107.03H77.773L82.2525 101.153H83.9507L83.9556 103.306V107.087H87.9493V103.187V101.153H89.6896L94.1394 107.03Z" fill="#3370FF"/>
<path id="Vector_8" d="M75.7946 89.3837V96.0651H97.8131V93.2812H89.4168V92.227H96.7273V89.7945H89.4168V88.5943H96.7273V86.1915H89.4168V85.4293V85.0482H97.6074V82.294H90.0613H89.4143V80H85.6561V82.294H80.7526C81.0278 81.8065 81.3997 81.0171 81.8707 80H77.6787C77.2151 81.0319 76.521 82.3237 75.4426 83.9049C74.3667 85.4887 73.3875 86.7284 72.5075 87.6267L72.5149 92.5586C73.9106 91.6776 75.3311 90.089 75.7946 89.3837ZM79.5825 85.0457H85.6586V85.4268V86.189H79.5825V85.0457ZM79.5825 88.5943H85.6586V89.7945H79.5825V88.5943ZM79.5825 92.227H85.6586V93.2812H79.5825V92.227Z" fill="#3370FF"/>
<path id="Vector_9" d="M121.21 99.7275H110.352V102.375H121.21V99.7275Z" fill="#3370FF"/>
<path id="Vector_10" d="M124.613 94.9861H114.945H104.858V107.112H126.624L126.656 100.97V94.9861H124.613ZM122.618 98.3961L122.615 99.0272H122.618V103.494H122.613V103.501V103.783H108.939V102.378H108.941V99.73H108.939V98.3244H108.949V98.3145H122.618V98.3961Z" fill="#3370FF"/>
</g>
<g id="Group_3">
<path id="Vector_11" d="M70.4325 61.3411L82.4011 40.6485C81.9697 40.2055 81.6599 39.6537 81.4839 39.0449H57.4152C57.2367 39.6265 56.9368 40.1511 56.5228 40.5792L68.541 61.3559C68.8533 61.2743 69.1731 61.2149 69.5103 61.2149C69.8301 61.2149 70.135 61.2668 70.4325 61.3411Z" fill="#3370FF"/>
<path id="Vector_12" d="M86.0453 41.678C85.7479 41.7522 85.4429 41.8042 85.1207 41.8042C84.8009 41.8042 84.496 41.7522 84.1985 41.678L72.2299 62.3706C72.6711 62.8235 72.9884 63.3901 73.1595 64.0187H97.0868C97.2579 63.3926 97.5752 62.8259 98.0165 62.3731L86.0453 41.678Z" fill="#3370FF"/>
<path id="Vector_13" d="M84.1985 34.3432C84.496 34.269 84.8009 34.217 85.1207 34.217C85.4405 34.217 85.7479 34.269 86.0453 34.3432L98.014 13.6506C97.5727 13.1953 97.2554 12.6286 97.0843 12H73.1595C72.9884 12.6286 72.6711 13.1953 72.2299 13.6481L84.1985 34.3432Z" fill="#3370FF"/>
<path id="Vector_14" d="M81.4839 36.9762C81.6574 36.365 81.9698 35.8156 82.3987 35.3727L70.43 14.6801C70.1326 14.7543 69.8276 14.8063 69.5079 14.8063C69.1707 14.8063 68.8509 14.7494 68.5386 14.6652L56.5675 35.3653C56.9864 35.8156 57.2938 36.365 57.4549 36.9762H81.4839Z" fill="#3370FF"/>
<path id="Vector_15" d="M131.044 14.6826L119.083 35.3628C119.519 35.8083 119.832 36.3626 120.008 36.9787H143.997C144.16 36.3601 144.47 35.8033 144.897 35.3505L132.936 14.6702C132.626 14.7519 132.303 14.8113 131.966 14.8113C131.649 14.8088 131.342 14.7568 131.044 14.6826Z" fill="#3370FF"/>
<path id="Vector_16" d="M115.431 34.3482C115.734 34.2714 116.044 34.217 116.369 34.217C116.683 34.217 116.986 34.2665 117.278 34.3383L129.244 13.6506C128.803 13.1953 128.486 12.6286 128.315 12H104.39C104.219 12.6286 103.902 13.1953 103.46 13.6506L115.431 34.3482Z" fill="#3370FF"/>
<path id="Vector_17" d="M117.278 41.6829C116.986 41.7547 116.686 41.8042 116.371 41.8042C116.046 41.8042 115.736 41.7497 115.434 41.673L103.46 62.373C103.902 62.8259 104.216 63.3901 104.388 64.0187H128.317C128.488 63.3926 128.806 62.8259 129.244 62.373L117.278 41.6829Z" fill="#3370FF"/>
<path id="Vector_18" d="M88.7597 36.9762H112.734C112.908 36.3724 113.215 35.8255 113.639 35.385L101.663 14.6801C101.365 14.7543 101.058 14.8063 100.738 14.8063C100.418 14.8063 100.111 14.7543 99.8136 14.6801L87.845 35.3727C88.2738 35.8156 88.5862 36.3675 88.7597 36.9762Z" fill="#3370FF"/>
<path id="Vector_19" d="M120.008 39.0449C119.832 39.6611 119.519 40.2154 119.083 40.6608L131.047 61.346C131.344 61.2718 131.649 61.2198 131.969 61.2198C132.303 61.2198 132.623 61.2767 132.933 61.3584L144.944 40.594C144.525 40.1659 144.22 39.6339 144.039 39.0474H120.008V39.0449Z" fill="#3370FF"/>
<path id="Vector_20" d="M112.732 39.0449H88.7597C88.5862 39.6537 88.2738 40.2055 87.845 40.6485L99.8161 61.346C100.114 61.2718 100.418 61.2198 100.738 61.2198C101.058 61.2198 101.365 61.2718 101.66 61.346L113.637 40.6386C113.213 40.1956 112.905 39.6512 112.732 39.0449Z" fill="#3370FF"/>
</g>
</g>
</g>
</svg>
