<svg width="12" height="16" viewBox="0 0 12 16" fill="none" xmlns="http://www.w3.org/2000/svg">
<path d="M10.1444 -0.0359344H1.85872C1.22837 -0.0359344 0.715866 0.476566 0.715866 1.10692V14.8212C0.715866 15.4516 1.22837 15.9641 1.85872 15.9641H10.1444C10.7748 15.9641 11.2873 15.4516 11.2873 14.8212V1.10692C11.2873 0.476566 10.7748 -0.0359344 10.1444 -0.0359344ZM10.0016 14.6784H2.00158V1.24978H10.0016V14.6784ZM5.28729 12.8569C5.28729 13.0464 5.36255 13.228 5.4965 13.362C5.63046 13.496 5.81214 13.5712 6.00158 13.5712C6.19102 13.5712 6.3727 13.496 6.50666 13.362C6.64061 13.228 6.71587 13.0464 6.71587 12.8569C6.71587 12.6675 6.64061 12.4858 6.50666 12.3518C6.3727 12.2179 6.19102 12.1426 6.00158 12.1426C5.81214 12.1426 5.63046 12.2179 5.4965 12.3518C5.36255 12.4858 5.28729 12.6675 5.28729 12.8569Z" fill="#BFBFBF"/>
</svg>
