<svg width="25" height="24" viewBox="0 0 25 24" fill="none" xmlns="http://www.w3.org/2000/svg">
<g clip-path="url(#clip0_3832_67299)">
<circle cx="20.875" cy="20" r="4" fill="white" fill-opacity="0.1"/>
<circle cx="4.875" cy="4" r="4" fill="white" fill-opacity="0.1"/>
<path d="M3.18111 8.99422H4.68111C4.79896 8.99422 4.89539 8.89779 4.89539 8.77994V4.06565H9.60968C9.72754 4.06565 9.82397 3.96922 9.82397 3.85136V2.35137C9.82397 2.23351 9.72754 2.13708 9.60968 2.13708H3.86682C3.36976 2.13708 2.96682 2.54002 2.96682 3.03708L2.96682 8.77994C2.96682 8.89779 3.06325 8.99422 3.18111 8.99422ZM16.1402 4.06566H20.8545V8.77994C20.8545 8.8978 20.9509 8.99423 21.0688 8.99423H22.5688C22.6866 8.99423 22.783 8.8978 22.783 8.77994V3.03709C22.783 2.54004 22.3801 2.13709 21.883 2.13709L16.1402 2.13709C16.0223 2.13709 15.9259 2.23352 15.9259 2.35137V3.85138C15.9259 3.96923 16.0223 4.06566 16.1402 4.06566ZM9.60965 19.9343H4.89537V15.22C4.89537 15.1022 4.79894 15.0057 4.68108 15.0057H3.18108C3.06323 15.0057 2.9668 15.1022 2.9668 15.22V20.9629C2.9668 21.4599 3.36974 21.8629 3.8668 21.8629H9.60965C9.72751 21.8629 9.82394 21.7665 9.82394 21.6486V20.1486C9.82394 20.0307 9.72751 19.9343 9.60965 19.9343ZM22.5687 15.0057H21.0687C20.9509 15.0057 20.8544 15.1022 20.8544 15.22V19.9343H16.1401C16.0223 19.9343 15.9259 20.0308 15.9259 20.1486V21.6486C15.9259 21.7665 16.0223 21.8629 16.1401 21.8629H21.883C22.3801 21.8629 22.783 21.46 22.783 20.9629V15.22C22.783 15.1022 22.6866 15.0057 22.5687 15.0057Z" fill="white"/>
<path d="M3.19104 11.0356L22.5588 11.0356C22.6821 11.0356 22.783 11.1321 22.783 11.2499V12.7499C22.783 12.8678 22.6821 12.9642 22.5588 12.9642L3.19104 12.9642C3.06771 12.9642 2.9668 12.8678 2.9668 12.7499V11.2499C2.9668 11.1321 3.06771 11.0356 3.19104 11.0356Z" fill="white"/>
</g>
<defs>
<clipPath id="clip0_3832_67299">
<rect width="24" height="24" fill="white" transform="translate(0.875)"/>
</clipPath>
</defs>
</svg>
