<svg width="25" height="24" viewBox="0 0 25 24" fill="none" xmlns="http://www.w3.org/2000/svg">
<g clip-path="url(#clip0_3832_67308)">
<path d="M23.7679 4.28081H19.4821V2.78081C19.4821 2.66296 19.3857 2.56653 19.2679 2.56653H17.7679C17.65 2.56653 17.5536 2.66296 17.5536 2.78081V4.28081H13.5893V2.78081C13.5893 2.66296 13.4929 2.56653 13.375 2.56653H11.875C11.7571 2.56653 11.6607 2.66296 11.6607 2.78081V4.28081H7.69643V2.78081C7.69643 2.66296 7.6 2.56653 7.48214 2.56653H5.98214C5.86429 2.56653 5.76786 2.66296 5.76786 2.78081V4.28081H1.48214C1.00804 4.28081 0.625 4.66385 0.625 5.13796V20.5665C0.625 21.0406 1.00804 21.4237 1.48214 21.4237H23.7679C24.242 21.4237 24.625 21.0406 24.625 20.5665V5.13796C24.625 4.66385 24.242 4.28081 23.7679 4.28081ZM22.6964 19.4951H2.55357V6.20939H5.76786V7.70939C5.76786 7.82724 5.86429 7.92367 5.98214 7.92367H7.48214C7.6 7.92367 7.69643 7.82724 7.69643 7.70939V6.20939H11.6607V7.70939C11.6607 7.82724 11.7571 7.92367 11.875 7.92367H13.375C13.4929 7.92367 13.5893 7.82724 13.5893 7.70939V6.20939H17.5536V7.70939C17.5536 7.82724 17.65 7.92367 17.7679 7.92367H19.2679C19.3857 7.92367 19.4821 7.82724 19.4821 7.70939V6.20939H22.6964V19.4951ZM10.0536 11.5665H5.125C5.00714 11.5665 4.91071 11.663 4.91071 11.7808V13.0665C4.91071 13.1844 5.00714 13.2808 5.125 13.2808H10.0536C10.1714 13.2808 10.2679 13.1844 10.2679 13.0665V11.7808C10.2679 11.663 10.1714 11.5665 10.0536 11.5665ZM10.0536 15.2094H5.125C5.00714 15.2094 4.91071 15.3058 4.91071 15.4237V16.7094C4.91071 16.8272 5.00714 16.9237 5.125 16.9237H10.0536C10.1714 16.9237 10.2679 16.8272 10.2679 16.7094V15.4237C10.2679 15.3058 10.1714 15.2094 10.0536 15.2094ZM18.3089 10.4576L15.5339 14.3067L14.1196 12.3487C14.0393 12.2362 13.9107 12.1719 13.7741 12.1719H12.3036C12.1295 12.1719 12.0277 12.3701 12.1295 12.5121L15.1857 16.7496C15.2252 16.8043 15.2771 16.8489 15.3372 16.8797C15.3972 16.9104 15.4638 16.9265 15.5312 16.9265C15.5987 16.9265 15.6653 16.9104 15.7253 16.8797C15.7854 16.8489 15.8373 16.8043 15.8768 16.7496L20.2964 10.6237C20.3982 10.4817 20.2964 10.2835 20.1223 10.2835H18.6518C18.5179 10.2808 18.3893 10.3478 18.3089 10.4576Z" fill="#3370FF"/>
</g>
<defs>
<clipPath id="clip0_3832_67308">
<rect width="24" height="24" fill="white" transform="translate(0.625)"/>
</clipPath>
</defs>
</svg>
