<svg width="25" height="24" viewBox="0 0 25 24" fill="none" xmlns="http://www.w3.org/2000/svg">
<g clip-path="url(#clip0_3832_67311)">
<circle cx="20.125" cy="20" r="4" fill="#F0F0F0"/>
<circle cx="4.125" cy="4" r="4" fill="#F0F0F0"/>
<path d="M20.0563 16.2576C20.0128 16.0258 19.9493 15.801 19.8677 15.5852C19.9432 15.7849 20.0033 15.9923 20.0463 16.2058C20.0479 16.214 20.0495 16.2222 20.0511 16.2304C20.0529 16.2394 20.0546 16.2485 20.0563 16.2576Z" fill="#BFBFBF"/>
<path fill-rule="evenodd" clip-rule="evenodd" d="M8.15845 7.99999C8.15845 5.80926 9.93439 4.03333 12.1251 4.03333C14.3158 4.03333 16.0918 5.80926 16.0918 7.99999C16.0918 10.1907 14.3158 11.9667 12.1251 11.9667C9.93439 11.9667 8.15845 10.1907 8.15845 7.99999ZM12.1251 5.96666C11.0021 5.96666 10.0918 6.87701 10.0918 7.99999C10.0918 9.12297 11.0021 10.0333 12.1251 10.0333C13.2481 10.0333 14.1584 9.12297 14.1584 7.99999C14.1584 6.87701 13.2481 5.96666 12.1251 5.96666Z" fill="#BFBFBF"/>
<path fill-rule="evenodd" clip-rule="evenodd" d="M23.0918 12C23.0918 18.0567 18.1818 22.9667 12.1251 22.9667C6.06839 22.9667 1.15845 18.0567 1.15845 12C1.15845 5.94327 6.06839 1.03333 12.1251 1.03333C18.1818 1.03333 23.0918 5.94327 23.0918 12ZM18.1473 18.7331L18.1584 18.7232V17C18.1584 15.877 17.2481 14.9667 16.1251 14.9667H8.12511C7.00215 14.9667 6.09178 15.877 6.09178 17V18.7232L6.10288 18.7331C7.70103 20.1635 9.81154 21.0333 12.1251 21.0333C14.4387 21.0333 16.5492 20.1635 18.1473 18.7331ZM20.0236 16.2637L20.041 16.3565L20.0857 16.2734C20.7701 15.0011 21.1584 13.5458 21.1584 12C21.1584 7.01102 17.1141 2.96666 12.1251 2.96666C7.13614 2.96666 3.09178 7.01102 3.09178 12C3.09178 13.5458 3.48009 15.0011 4.16452 16.2734L4.20923 16.3565L4.22664 16.2637C4.57177 14.4248 6.18596 13.0333 8.12511 13.0333H16.1251C18.0643 13.0333 19.6785 14.4248 20.0236 16.2637Z" fill="#BFBFBF"/>
</g>
<defs>
<clipPath id="clip0_3832_67311">
<rect width="24" height="24" fill="white" transform="translate(0.125)"/>
</clipPath>
</defs>
</svg>
